<svg width="89" height="40" viewBox="0 0 89 40" fill="none" xmlns="http://www.w3.org/2000/svg">
<path d="M5.29412 15.4569V1.90078H1.14187V0.18799H11.3149V1.90078H7.16263V15.4569H5.29412Z" fill="#E7E7E7"/>
<path d="M14.3587 15.4569V0.208877H19.0507C19.9504 0.208877 20.7393 0.396867 21.4175 0.772846C22.0957 1.1349 22.6216 1.64317 22.9954 2.29765C23.3691 2.95213 23.5559 3.71802 23.5559 4.5953C23.5559 5.62576 23.286 6.51001 22.7462 7.24804C22.2203 7.98608 21.5005 8.49434 20.587 8.77285L23.7635 15.4569H21.5628L18.6562 8.98172H16.2272V15.4569H14.3587ZM16.2272 7.28982H19.0507C19.8258 7.28982 20.4486 7.04613 20.9192 6.55875C21.3898 6.05744 21.6251 5.40296 21.6251 4.5953C21.6251 3.77372 21.3898 3.11923 20.9192 2.63185C20.4486 2.14447 19.8258 1.90078 19.0507 1.90078H16.2272V7.28982Z" fill="#E7E7E7"/>
<path d="M31.1256 15.6658C30.2122 15.6658 29.4232 15.4917 28.7589 15.1436C28.1083 14.7955 27.6032 14.2942 27.2433 13.6397C26.8973 12.9713 26.7243 12.1845 26.7243 11.2794V4.38642C26.7243 3.46736 26.8973 2.68059 27.2433 2.02611C27.6032 1.37163 28.1083 0.870321 28.7589 0.522193C29.4232 0.174064 30.2122 0 31.1256 0C32.0391 0 32.8211 0.174064 33.4717 0.522193C34.136 0.870321 34.6412 1.37163 34.9872 2.02611C35.3471 2.68059 35.527 3.4604 35.527 4.36554V11.2794C35.527 12.1845 35.3471 12.9713 34.9872 13.6397C34.6412 14.2942 34.136 14.7955 33.4717 15.1436C32.8211 15.4917 32.0391 15.6658 31.1256 15.6658ZM31.1256 13.9739C31.9423 13.9739 32.5651 13.7441 32.9942 13.2846C33.4371 12.8111 33.6585 12.1427 33.6585 11.2794V4.38642C33.6585 3.52306 33.4371 2.86162 32.9942 2.40209C32.5651 1.92863 31.9423 1.69191 31.1256 1.69191C30.3229 1.69191 29.7 1.92863 29.2571 2.40209C28.8142 2.86162 28.5928 3.52306 28.5928 4.38642V11.2794C28.5928 12.1427 28.8142 12.8111 29.2571 13.2846C29.7 13.7441 30.3229 13.9739 31.1256 13.9739Z" fill="#E7E7E7"/>
<path d="M43.5743 15.6658C42.6608 15.6658 41.8719 15.4917 41.2075 15.1436C40.557 14.7955 40.0518 14.2942 39.6919 13.6397C39.3459 12.9713 39.1729 12.1845 39.1729 11.2794V4.38642C39.1729 3.46736 39.3459 2.68059 39.6919 2.02611C40.0518 1.37163 40.557 0.870321 41.2075 0.522193C41.8719 0.174064 42.6608 0 43.5743 0C44.4878 0 45.2698 0.174064 45.9203 0.522193C46.5847 0.870321 47.0899 1.37163 47.4359 2.02611C47.7957 2.68059 47.9757 3.4604 47.9757 4.36554V11.2794C47.9757 12.1845 47.7957 12.9713 47.4359 13.6397C47.0899 14.2942 46.5847 14.7955 45.9203 15.1436C45.2698 15.4917 44.4878 15.6658 43.5743 15.6658ZM43.5743 13.9739C44.3909 13.9739 45.0137 13.7441 45.4428 13.2846C45.8857 12.8111 46.1072 12.1427 46.1072 11.2794V4.38642C46.1072 3.52306 45.8857 2.86162 45.4428 2.40209C45.0137 1.92863 44.3909 1.69191 43.5743 1.69191C42.7715 1.69191 42.1487 1.92863 41.7058 2.40209C41.2629 2.86162 41.0414 3.52306 41.0414 4.38642V11.2794C41.0414 12.1427 41.2629 12.8111 41.7058 13.2846C42.1487 13.7441 42.7715 13.9739 43.5743 13.9739Z" fill="#E7E7E7"/>
<path d="M51.7046 15.4569V0.208877H56.5835C57.5247 0.208877 58.3413 0.396867 59.0333 0.772846C59.7253 1.1349 60.2582 1.65013 60.6319 2.31854C61.0195 2.98694 61.2132 3.78068 61.2132 4.69974C61.2132 5.60487 61.0195 6.39861 60.6319 7.08094C60.2582 7.74935 59.7253 8.27154 59.0333 8.64752C58.3413 9.00957 57.5247 9.1906 56.5835 9.1906H53.5731V15.4569H51.7046ZM53.5731 7.49869H56.5835C57.4001 7.49869 58.0506 7.24804 58.535 6.74674C59.0333 6.23151 59.2824 5.54917 59.2824 4.69974C59.2824 3.83638 59.0333 3.15405 58.535 2.65274C58.0506 2.15144 57.4001 1.90078 56.5835 1.90078H53.5731V7.49869Z" fill="#E7E7E7"/>
<path d="M64.3193 15.4569V0.208877H73.039V1.92167H66.1671V6.6423H72.3124V8.3342H66.1671V13.7441H73.039V15.4569H64.3193Z" fill="#E7E7E7"/>
<path d="M76.6019 15.4569V0.208877H81.2939C82.1936 0.208877 82.9825 0.396867 83.6607 0.772846C84.3389 1.1349 84.8648 1.64317 85.2385 2.29765C85.6122 2.95213 85.7991 3.71802 85.7991 4.5953C85.7991 5.62576 85.5292 6.51001 84.9894 7.24804C84.4634 7.98608 83.7437 8.49434 82.8302 8.77285L86.0067 15.4569H83.806L80.8994 8.98172H78.4704V15.4569H76.6019ZM78.4704 7.28982H81.2939C82.069 7.28982 82.6918 7.04613 83.1624 6.55875C83.633 6.05744 83.8683 5.40296 83.8683 4.5953C83.8683 3.77372 83.633 3.11923 83.1624 2.63185C82.6918 2.14447 82.069 1.90078 81.2939 1.90078H78.4704V7.28982Z" fill="#E7E7E7"/>
<path d="M15.8304 39.8259V27.1192H22.9239V27.9199H16.6955V33.0026H22.3183V33.8033H16.6955V39.8259H15.8304Z" fill="#E7E7E7"/>
<path d="M25.8583 39.8259V39.0426H29.3358V31.0357H26.2908V30.2524H30.2009V39.0426H33.4707V39.8259H25.8583ZM29.6645 28.4247C29.3646 28.4247 29.1224 28.3377 28.9379 28.1636C28.7533 27.9896 28.6611 27.7575 28.6611 27.4674C28.6611 27.1773 28.7533 26.9452 28.9379 26.7711C29.1224 26.597 29.3646 26.51 29.6645 26.51C29.9644 26.51 30.2066 26.597 30.3912 26.7711C30.5757 26.9452 30.668 27.1773 30.668 27.4674C30.668 27.7575 30.5757 27.9896 30.3912 28.1636C30.2066 28.3377 29.9644 28.4247 29.6645 28.4247Z" fill="#E7E7E7"/>
<path d="M36.4917 39.8259V30.2524H37.3567V31.906H37.7546L37.2356 32.7937C37.2356 31.9698 37.4836 31.3142 37.9796 30.8268C38.4871 30.3278 39.1618 30.0783 40.0038 30.0783C40.938 30.0783 41.6878 30.38 42.2529 30.9835C42.8181 31.5869 43.1007 32.405 43.1007 33.4378V39.8259H42.2356V33.5596C42.2356 32.7009 42.0165 32.0337 41.5782 31.5579C41.1514 31.0705 40.569 30.8268 39.8308 30.8268C39.0695 30.8268 38.464 31.0705 38.0142 31.5579C37.5759 32.0453 37.3567 32.7125 37.3567 33.5596V39.8259H36.4917Z" fill="#E7E7E7"/>
<path d="M49.9278 40C48.982 40 48.2208 39.6867 47.6441 39.0601C47.0674 38.4218 46.779 37.5805 46.779 36.5361V33.5596C46.779 32.5152 47.0674 31.6739 47.6441 31.0357C48.2208 30.3974 48.982 30.0783 49.9278 30.0783C50.7583 30.0783 51.433 30.3162 51.952 30.792C52.4826 31.2678 52.7479 31.9002 52.7479 32.6893L52.2635 31.5579H52.5749V27.1192H53.4399V39.8259H52.5749V38.5205H52.0905L52.7479 37.389C52.7479 38.1781 52.4826 38.8106 51.952 39.2863C51.433 39.7621 50.7583 40 49.9278 40ZM50.1008 39.2515C50.8851 39.2515 51.4907 39.0136 51.9174 38.5379C52.3557 38.0505 52.5749 37.3832 52.5749 36.5361V33.5596C52.5749 32.7009 52.3557 32.0337 51.9174 31.5579C51.4907 31.0705 50.8851 30.8268 50.1008 30.8268C49.328 30.8268 48.7225 31.0705 48.2842 31.5579C47.8575 32.0337 47.6441 32.7009 47.6441 33.5596V36.5361C47.6441 37.3832 47.8575 38.0505 48.2842 38.5379C48.7225 39.0136 49.328 39.2515 50.1008 39.2515Z" fill="#E7E7E7"/>
<path d="M60.5439 40C59.8403 40 59.2348 39.8607 58.7273 39.5822C58.2198 39.2921 57.8276 38.886 57.5508 38.3638C57.2855 37.8416 57.1529 37.2266 57.1529 36.5187V33.5596C57.1529 32.8518 57.2855 32.2425 57.5508 31.7319C57.8276 31.2097 58.2198 30.8036 58.7273 30.5135C59.2348 30.2234 59.8403 30.0783 60.5439 30.0783C61.2475 30.0783 61.8472 30.2234 62.3432 30.5135C62.8392 30.8036 63.2198 31.2097 63.4851 31.7319C63.7619 32.2425 63.9003 32.8518 63.9003 33.5596V35.2132H58.0179V36.5187C58.0179 37.3542 58.2371 38.0157 58.6754 38.503C59.1137 38.9904 59.7365 39.2341 60.5439 39.2341C61.1898 39.2341 61.7204 39.0775 62.1356 38.7641C62.5624 38.4508 62.8565 38.0215 63.0179 37.4761H63.883C63.71 38.2536 63.3294 38.8686 62.7411 39.3212C62.1644 39.7737 61.432 40 60.5439 40ZM63.0352 34.6214V33.5596C63.0352 32.7241 62.8161 32.0627 62.3778 31.5753C61.951 31.0879 61.3397 30.8442 60.5439 30.8442C59.7365 30.8442 59.1137 31.0879 58.6754 31.5753C58.2371 32.0511 58.0179 32.7125 58.0179 33.5596V34.4648H63.2256L63.0352 34.6214Z" fill="#E7E7E7"/>
<path d="M67.9074 39.8259V30.2524H68.7724V31.906H68.98L68.5821 32.9156C68.5937 32.0685 68.8532 31.3838 69.3607 30.8616C69.8682 30.3394 70.5429 30.0783 71.3849 30.0783C72.3999 30.0783 73.2015 30.3916 73.7897 31.0183C74.378 31.6449 74.6721 32.492 74.6721 33.5596V34.0818H73.7205V33.5596C73.7205 32.7009 73.5014 32.0337 73.0631 31.5579C72.6363 31.0705 72.0308 30.8268 71.2465 30.8268C70.4737 30.8268 69.8682 31.0705 69.4299 31.5579C68.9916 32.0337 68.7724 32.7009 68.7724 33.5596V39.8259H67.9074Z" fill="#E7E7E7"/>
<path d="M0 20.6789H88.2353V22.4195H0V20.6789Z" fill="#E7E7E7"/>
</svg>
